<?xml version="1.0" encoding="UTF-8"?>
<svg id="Calque_1" data-name="Calque 1" xmlns="http://www.w3.org/2000/svg" viewBox="0 0 543.92 398.56">
  <defs>
    <style>
      .cls-1 {
        fill: #ffdc7c;
      }

      .cls-1, .cls-2 {
        stroke-width: 0px;
      }

      .cls-2 {
        fill: #fff;
      }
    </style>
  </defs>
  <g>
    <ellipse class="cls-1" cx="172.41" cy="172.51" rx="69.73" ry="69.77"/>
    <g>
      <path class="cls-1" d="M172.41,76.23h0c-4.62,0-8.36-3.74-8.36-8.36V8.36c0-4.62,3.74-8.36,8.36-8.36h0c4.62,0,8.36,3.74,8.36,8.36v59.5c0,4.62-3.74,8.36-8.36,8.36Z"/>
      <path class="cls-1" d="M172.41,345.02h0c-4.62,0-8.36-3.74-8.36-8.36v-59.5c0-4.62,3.74-8.36,8.36-8.36h0c4.62,0,8.36,3.74,8.36,8.36v59.5c0,4.62-3.74,8.36-8.36,8.36Z"/>
    </g>
    <g>
      <path class="cls-1" d="M240.44,104.43h0c-3.26-3.27-3.26-8.56,0-11.83l42.05-42.08c3.26-3.27,8.56-3.27,11.82,0h0c3.26,3.27,3.26,8.56,0,11.83l-42.05,42.08c-3.26,3.27-8.56,3.27-11.82,0Z"/>
      <path class="cls-1" d="M50.5,294.49h0c-3.26-3.27-3.26-8.56,0-11.83l42.05-42.08c3.26-3.27,8.56-3.27,11.82,0h0c3.26,3.27,3.26,8.56,0,11.83l-42.05,42.08c-3.26,3.27-8.56,3.27-11.82,0Z"/>
    </g>
    <g>
      <path class="cls-1" d="M268.63,172.51h0c0-4.62,3.74-8.36,8.36-8.36h59.47c4.62,0,8.36,3.74,8.36,8.36h0c0,4.62-3.74,8.36-8.36,8.36h-59.47c-4.62,0-8.36-3.74-8.36-8.36Z"/>
      <path class="cls-1" d="M0,172.51h0c0-4.62,3.74-8.36,8.36-8.36h59.47c4.62,0,8.36,3.74,8.36,8.36h0c0,4.62-3.74,8.36-8.36,8.36H8.36c-4.62,0-8.36-3.74-8.36-8.36Z"/>
    </g>
    <g>
      <path class="cls-1" d="M240.44,240.59h0c3.26-3.27,8.56-3.27,11.82,0l42.05,42.08c3.26,3.27,3.26,8.56,0,11.83h0c-3.26,3.27-8.56,3.27-11.82,0l-42.05-42.08c-3.26-3.27-3.26-8.56,0-11.83Z"/>
      <path class="cls-1" d="M50.5,50.53h0c3.26-3.27,8.56-3.27,11.82,0l42.05,42.08c3.26,3.27,3.26,8.56,0,11.83h0c-3.26,3.27-8.56,3.27-11.82,0l-42.05-42.08c-3.26-3.27-3.26-8.56,0-11.83Z"/>
    </g>
  </g>
  <path class="cls-2" d="M491.9,294.46c-.22,0-.43.06-.66.07,4.13-9.56,6.45-20.1,6.45-31.18,0-43.45-35.2-78.68-78.63-78.68-15.35,0-29.62,4.47-41.73,12.08-16.37-39.81-55.48-67.87-101.18-67.87-60.42,0-109.4,49.01-109.4,109.47,0,4.57.37,9.05.91,13.47-.31,0-.6-.05-.91-.05-40.51,0-73.35,32.86-73.35,73.4s32.84,73.4,73.35,73.4h325.14c28.73,0,52.02-23.3,52.02-52.05s-23.29-52.05-52.02-52.05Z"/>
</svg>