<?xml version="1.0" encoding="UTF-8"?>
<svg id="Calque_1" data-name="Calque 1" xmlns="http://www.w3.org/2000/svg" version="1.1" viewBox="0 0 595.28 841.89">
  <defs>
    <style>
      .cls-1 {
        fill: #ffdc7c;
      }

      .cls-1, .cls-2 {
        stroke-width: 0px;
      }

      .cls-2 {
        fill: #fff;
      }
    </style>
  </defs>
  <g>
    <circle class="cls-1" cx="199.18" cy="383.68" r="62.45" transform="translate(-211.64 518.29) rotate(-80.71)"/>
    <g>
      <path class="cls-1" d="M199.18,297.51h0c-4.13,0-7.49-3.35-7.49-7.49v-53.26c0-4.13,3.35-7.49,7.49-7.49h0c4.13,0,7.49,3.35,7.49,7.49v53.26c0,4.13-3.35,7.49-7.49,7.49Z"/>
      <path class="cls-1" d="M199.18,538.1h0c-4.13,0-7.49-3.35-7.49-7.49v-53.26c0-4.13,3.35-7.49,7.49-7.49h0c4.13,0,7.49,3.35,7.49,7.49v53.26c0,4.13-3.35,7.49-7.49,7.49Z"/>
    </g>
    <g>
      <path class="cls-1" d="M260.11,322.75h0c-2.92-2.92-2.92-7.66,0-10.59l37.66-37.66c2.92-2.92,7.66-2.92,10.59,0h0c2.92,2.92,2.92,7.66,0,10.59l-37.66,37.66c-2.92,2.92-7.66,2.92-10.59,0Z"/>
      <path class="cls-1" d="M89.99,492.87h0c-2.92-2.92-2.92-7.66,0-10.59l37.66-37.66c2.92-2.92,7.66-2.92,10.59,0h0c2.92,2.92,2.92,7.66,0,10.59l-37.66,37.66c-2.92,2.92-7.66,2.92-10.59,0Z"/>
    </g>
    <g>
      <path class="cls-1" d="M285.36,383.68h0c0-4.13,3.35-7.49,7.49-7.49h53.26c4.13,0,7.49,3.35,7.49,7.49h0c0,4.13-3.35,7.49-7.49,7.49h-53.26c-4.13,0-7.49-3.35-7.49-7.49Z"/>
      <path class="cls-1" d="M44.76,383.68h0c0-4.13,3.35-7.49,7.49-7.49h53.26c4.13,0,7.49,3.35,7.49,7.49h0c0,4.13-3.35,7.49-7.49,7.49h-53.26c-4.13,0-7.49-3.35-7.49-7.49Z"/>
    </g>
    <g>
      <path class="cls-1" d="M260.11,444.62h0c2.92-2.92,7.66-2.92,10.59,0l37.66,37.66c2.92,2.92,2.92,7.66,0,10.59h0c-2.92,2.92-7.66,2.92-10.59,0l-37.66-37.66c-2.92-2.92-2.92-7.66,0-10.59Z"/>
      <path class="cls-1" d="M89.99,274.5h0c2.92-2.92,7.66-2.92,10.59,0l37.66,37.66c2.92,2.92,2.92,7.66,0,10.59h0c-2.92,2.92-7.66,2.92-10.59,0l-37.66-37.66c-2.92-2.92-2.92-7.66,0-10.59Z"/>
    </g>
  </g>
  <path class="cls-2" d="M485.33,492.84c-.2,0-.39.06-.59.06,3.7-8.56,5.77-17.99,5.77-27.91,0-38.89-31.53-70.42-70.42-70.42-13.75,0-26.53,4-37.37,10.81-14.66-35.64-49.69-60.75-90.62-60.75-54.12,0-97.99,43.87-97.99,97.99,0,4.09.33,8.1.82,12.06-.27,0-.54-.04-.82-.04-36.28,0-65.7,29.41-65.7,65.7s29.41,65.7,65.7,65.7h291.21c25.73,0,46.59-20.86,46.59-46.59s-20.86-46.59-46.59-46.59Z"/>
</svg>