<?xml version="1.0" encoding="UTF-8"?>
<svg id="Calque_1" data-name="Calque 1" xmlns="http://www.w3.org/2000/svg" version="1.1" viewBox="0 0 595.28 841.89">
  <defs>
    <style>
      .cls-1 {
        fill: #fff;
        stroke-width: 0px;
      }
    </style>
  </defs>
  <rect class="cls-1" x="276.63" y="185.78" width="41.67" height="470.95" rx="4.58" ry="4.58"/>
  <g>
    <path class="cls-1" d="M379.38,220c5.49,5.49,5.49,14.39,0,19.88l-81.55,81.6-.32-.37-.37.37-81.59-81.59c-5.49-5.49-5.49-14.4,0-19.89l9.59-9.57c5.49-5.48,14.39-5.48,19.87,0l42.55,42.55c5.49,5.49,14.4,5.49,19.89,0l42.49-42.53c5.49-5.49,14.39-5.5,19.88,0l9.55,9.55Z"/>
    <path class="cls-1" d="M215.54,622.51c-5.49-5.49-5.49-14.39,0-19.88l81.55-81.6.32.37.37-.37,81.59,81.59c5.49,5.49,5.49,14.4,0,19.89l-9.59,9.57c-5.49,5.48-14.39,5.48-19.87,0l-42.55-42.55c-5.49-5.49-14.4-5.49-19.88,0l-42.49,42.53c-5.49,5.49-14.39,5.5-19.88,0l-9.55-9.55Z"/>
  </g>
  <rect class="cls-1" x="276.63" y="185.78" width="41.67" height="470.95" rx="4.58" ry="4.58" transform="translate(718.72 123.8) rotate(90)"/>
  <g>
    <path class="cls-1" d="M498.71,503.17c-5.49,5.49-14.39,5.49-19.88,0l-81.6-81.55.37-.32-.37-.37,81.59-81.59c5.49-5.49,14.4-5.49,19.89,0l9.57,9.59c5.48,5.49,5.48,14.39,0,19.87l-42.55,42.55c-5.49,5.49-5.49,14.4,0,19.89l42.53,42.49c5.49,5.49,5.5,14.39,0,19.88l-9.55,9.55Z"/>
    <path class="cls-1" d="M96.21,339.34c5.49-5.49,14.39-5.49,19.88,0l81.6,81.55-.37.32.37.37-81.59,81.59c-5.49,5.49-14.4,5.49-19.89,0l-9.57-9.59c-5.48-5.49-5.48-14.39,0-19.87l42.55-42.55c5.49-5.49,5.49-14.4,0-19.89l-42.53-42.49c-5.49-5.49-5.5-14.39,0-19.88l9.55-9.55Z"/>
  </g>
  <path class="cls-1" d="M184.99,533.75l-.02-.02c-5.49-5.49-5.49-14.39,0-19.88l205.08-205.08c5.49-5.49,14.39-5.49,19.88,0l.02.02c5.49,5.49,5.49,14.39,0,19.88l-205.08,205.08c-5.49,5.49-14.39,5.49-19.88,0Z"/>
  <g>
    <path class="cls-1" d="M432.72,359.69c0,7.76-6.29,14.06-14.05,14.06l-73.37.02.03-.33h-.35v-73.38c0-7.77,6.3-14.06,14.07-14.06h.03c7.76,0,14.05,6.3,14.05,14.06v31.53c0,7.77,6.3,14.06,14.06,14.06h31.48c7.77-.02,14.06,6.28,14.06,14.04h0Z"/>
    <path class="cls-1" d="M162.2,482.82c0-7.76,6.29-14.06,14.05-14.06l73.37-.02-.03.33h.35v73.38c0,7.77-6.3,14.06-14.07,14.06h-.03c-7.76,0-14.05-6.3-14.05-14.06v-31.53c0-7.77-6.3-14.06-14.06-14.06h-31.48c-7.77.02-14.06-6.28-14.06-14.04h0Z"/>
  </g>
  <path class="cls-1" d="M184.97,308.79l.02-.02c5.49-5.49,14.39-5.49,19.88,0l205.08,205.08c5.49,5.49,5.49,14.39,0,19.88l-.02.02c-5.49,5.49-14.39,5.49-19.88,0l-205.08-205.08c-5.49-5.49-5.49-14.39,0-19.88Z"/>
  <g>
    <path class="cls-1" d="M359.02,556.52c-7.76,0-14.06-6.29-14.06-14.05l-.02-73.37.33.03v-.35h73.38c7.77,0,14.06,6.3,14.06,14.07v.03c0,7.76-6.3,14.05-14.06,14.05h-31.53c-7.77,0-14.06,6.3-14.06,14.06v31.48c.02,7.77-6.28,14.06-14.04,14.06h0Z"/>
    <path class="cls-1" d="M235.9,285.99c7.76,0,14.06,6.29,14.06,14.05l.02,73.37-.33-.03v.35h-73.38c-7.77,0-14.06-6.3-14.06-14.07v-.03c0-7.76,6.3-14.05,14.06-14.05h31.53c7.77,0,14.06-6.3,14.06-14.06v-31.48c-.02-7.77,6.28-14.06,14.04-14.06h0Z"/>
  </g>
</svg>