<?xml version="1.0" encoding="UTF-8"?>
<svg id="Calque_1" data-name="Calque 1" xmlns="http://www.w3.org/2000/svg" viewBox="0 0 504.1 543.92">
  <defs>
    <style>
      .cls-1 {
        fill: #fff;
        stroke-width: 0px;
      }
    </style>
  </defs>
  <path class="cls-1" d="M445.89,185.16c-.25,0-.48.07-.73.07,4.62-10.69,7.21-22.47,7.21-34.87,0-48.59-39.39-87.98-87.98-87.98-17.17,0-33.15,5-46.69,13.51C299.39,31.37,255.62,0,204.49,0c-67.61,0-122.42,54.81-122.42,122.42,0,5.11.41,10.12,1.02,15.06-.34,0-.68-.05-1.02-.05C36.75,137.43,0,174.17,0,219.5s36.75,82.08,82.08,82.08h363.82c32.15,0,58.21-26.06,58.21-58.21s-26.06-58.21-58.21-58.21Z"/>
  <circle class="cls-1" cx="139.45" cy="381.61" r="17.97"/>
  <circle class="cls-1" cx="252.05" cy="381.61" r="17.97"/>
  <circle class="cls-1" cx="252.05" cy="525.95" r="17.97"/>
  <circle class="cls-1" cx="192.16" cy="452.28" r="17.97"/>
  <path class="cls-1" d="M331.11,452.28c0,9.92-8.04,17.97-17.97,17.97s-17.97-8.04-17.97-17.97,8.04-17.97,17.97-17.97,17.97,8.04,17.97,17.97Z"/>
  <circle class="cls-1" cx="364.65" cy="381.61" r="17.97"/>
</svg>