<?xml version="1.0" encoding="UTF-8"?>
<svg id="Calque_1" data-name="Calque 1" xmlns="http://www.w3.org/2000/svg" version="1.1" viewBox="0 0 595.28 841.89">
  <defs>
    <style>
      .cls-1 {
        fill: #fff;
        stroke-width: 0px;
      }
    </style>
  </defs>
  <path class="cls-1" d="M478.3,340.28c-.23,0-.45.07-.68.07,4.31-9.98,6.73-20.97,6.73-32.53,0-45.33-36.75-82.08-82.08-82.08-16.02,0-30.92,4.66-43.56,12.6-17.09-41.54-57.92-70.8-105.62-70.8-63.07,0-114.2,51.13-114.2,114.2,0,4.77.38,9.44.95,14.05-.32,0-.63-.05-.95-.05-42.29,0-76.57,34.28-76.57,76.57s34.28,76.57,76.57,76.57h339.41c29.99,0,54.3-24.31,54.3-54.3s-24.31-54.3-54.3-54.3Z"/>
  <circle class="cls-1" cx="192.41" cy="523.55" r="16.76"/>
  <circle class="cls-1" cx="297.46" cy="523.55" r="16.76"/>
  <circle class="cls-1" cx="297.46" cy="658.21" r="16.76"/>
  <circle class="cls-1" cx="241.58" cy="589.48" r="16.76"/>
  <path class="cls-1" d="M371.21,589.48c0,9.26-7.5,16.76-16.76,16.76s-16.76-7.5-16.76-16.76,7.5-16.76,16.76-16.76,16.76,7.5,16.76,16.76Z"/>
  <circle class="cls-1" cx="402.5" cy="523.55" r="16.76"/>
</svg>