<?xml version="1.0" encoding="UTF-8"?>
<svg id="Calque_1" data-name="Calque 1" xmlns="http://www.w3.org/2000/svg" version="1.1" viewBox="0 0 595.28 841.89">
  <defs>
    <style>
      .cls-1 {
        fill: #fff;
        stroke-width: 0px;
      }
    </style>
  </defs>
  <path class="cls-1" d="M483.74,440.26c-.24,0-.47.07-.71.07,4.47-10.34,6.98-21.73,6.98-33.72,0-46.99-38.09-85.08-85.08-85.08-16.61,0-32.05,4.83-45.15,13.06-17.71-43.06-60.03-73.39-109.48-73.39-65.38,0-118.38,53-118.38,118.38,0,4.94.4,9.78.99,14.56-.33,0-.65-.05-.99-.05-43.84,0-79.37,35.54-79.37,79.37s35.54,79.37,79.37,79.37h351.82c31.09,0,56.29-25.2,56.29-56.29s-25.2-56.29-56.29-56.29Z"/>
</svg>