<?xml version="1.0" encoding="UTF-8"?>
<svg id="Calque_1" data-name="Calque 1" xmlns="http://www.w3.org/2000/svg" viewBox="0 0 543.54 326.38">
  <defs>
    <style>
      .cls-1 {
        fill: #fff;
        stroke: #1d1d1b;
        stroke-miterlimit: 10;
        stroke-width: 3px;
      }
    </style>
  </defs>
  <path class="cls-1" d="M479.62,200.05c-.27,0-.52.08-.79.08,4.96-11.47,7.73-24.1,7.73-37.39,0-52.1-42.24-94.34-94.34-94.34-18.41,0-35.54,5.36-50.06,14.48C322.53,35.14,275.6,1.5,220.78,1.5c-72.5,0-131.26,58.77-131.26,131.26,0,5.48.44,10.85,1.09,16.15-.37,0-.72-.05-1.09-.05C40.9,148.86,1.5,188.26,1.5,236.87s39.4,88.01,88.01,88.01h390.11c34.47,0,62.42-27.94,62.42-62.42s-27.94-62.42-62.42-62.42Z"/>
</svg>