<?xml version="1.0" encoding="UTF-8"?>
<svg id="Calque_1" data-name="Calque 1" xmlns="http://www.w3.org/2000/svg" version="1.1" viewBox="0 0 595.28 841.89">
  <defs>
    <style>
      .cls-1 {
        fill: #ffdc7c;
      }

      .cls-1, .cls-2 {
        stroke-width: 0px;
      }

      .cls-2 {
        fill: #fff;
      }
    </style>
  </defs>
  <path class="cls-1" d="M429.31,395.02c13.14,0,25.52-3.35,36.32-9.25-17.88,19.26-43.42,31.29-71.75,31.29-54.09,0-97.95-43.86-97.95-97.95s43.86-97.95,97.95-97.95c28.32,0,53.87,12.03,71.75,31.29-10.8-5.9-23.18-9.25-36.32-9.25-41.93,0-75.91,33.98-75.91,75.91s33.98,75.91,75.91,75.91Z"/>
  <path class="cls-2" d="M478.29,512.75c-.23,0-.45.07-.68.07,4.31-9.98,6.73-20.97,6.73-32.53,0-45.33-36.75-82.08-82.08-82.08-16.02,0-30.92,4.66-43.55,12.6-17.09-41.54-57.91-70.8-105.61-70.8-63.07,0-114.2,51.13-114.2,114.2,0,4.77.38,9.44.95,14.05-.32,0-.63-.05-.95-.05-42.29,0-76.57,34.28-76.57,76.57s34.28,76.57,76.57,76.57h339.4c29.99,0,54.3-24.31,54.3-54.3s-24.31-54.3-54.3-54.3Z"/>
</svg>