<?xml version="1.0" encoding="UTF-8"?>
<svg id="Calque_1" data-name="Calque 1" xmlns="http://www.w3.org/2000/svg" viewBox="0 0 543.92 540.51">
  <defs>
    <style>
      .cls-1 {
        fill: #ffdc7c;
      }

      .cls-1, .cls-2 {
        stroke-width: 0px;
      }

      .cls-2 {
        fill: #fff;
      }
    </style>
  </defs>
  <path class="cls-1" d="M424.46,234.82c15.2,0,29.52-4.52,42.01-12.49-20.68,26.02-50.23,42.26-82.99,42.26-62.56,0-113.29-59.24-113.29-132.29S320.92,0,383.48,0c32.76,0,62.31,16.24,82.99,42.26-12.49-7.97-26.81-12.49-42.01-12.49-48.49,0-87.8,45.9-87.8,102.53s39.31,102.53,87.8,102.53Z"/>
  <path class="cls-2" d="M481.11,393.83c-.27,0-.52.09-.79.09,4.99-13.48,7.78-28.32,7.78-43.93,0-61.22-42.5-110.86-94.93-110.86-18.53,0-35.76,6.3-50.38,17.02-19.76-56.1-66.98-95.63-122.15-95.63-72.95,0-132.09,69.06-132.09,154.24,0,6.44.44,12.75,1.1,18.98-.37,0-.73-.06-1.1-.06-48.91,0-88.56,46.3-88.56,103.42s39.65,103.42,88.56,103.42h392.55c34.69,0,62.81-32.84,62.81-73.34s-28.12-73.34-62.81-73.34Z"/>
</svg>