<?xml version="1.0" encoding="UTF-8"?>
<svg id="Calque_1" data-name="Calque 1" xmlns="http://www.w3.org/2000/svg" version="1.1" viewBox="0 0 595.28 841.89">
  <defs>
    <style>
      .cls-1 {
        fill: #ffdc7c;
      }

      .cls-1, .cls-2 {
        stroke-width: 0px;
      }

      .cls-2 {
        fill: #bbd6f1;
      }
    </style>
  </defs>
  <path class="cls-2" d="M481.03,345.59c-.24,0-.46.07-.69.07,4.38-10.13,6.83-21.28,6.83-33.02,0-46.02-37.3-83.32-83.32-83.32-16.26,0-31.39,4.73-44.21,12.79-17.35-42.16-58.79-71.87-107.21-71.87-64.03,0-115.93,51.9-115.93,115.93,0,4.84.39,9.58.97,14.26-.33,0-.64-.05-.97-.05-42.93,0-77.73,34.8-77.73,77.73s34.8,77.73,77.73,77.73h344.53c30.44,0,55.12-24.68,55.12-55.12s-24.68-55.12-55.12-55.12Z"/>
  <polygon class="cls-1" points="271.46 489.15 241.62 580.03 282.76 580.03 256.09 672.27 353.3 542.05 303.11 542.05 322.1 489.15 271.46 489.15"/>
</svg>