<?xml version="1.0" encoding="UTF-8"?>
<svg id="Calque_1" data-name="Calque 1" xmlns="http://www.w3.org/2000/svg" viewBox="0 0 543.92 543.92">
  <defs>
    <style>
      .cls-1 {
        fill: #ffdc7c;
      }

      .cls-1, .cls-2 {
        stroke-width: 0px;
      }

      .cls-2 {
        fill: #bbd6f1;
      }
    </style>
  </defs>
  <path class="cls-2" d="M481.11,189.98c-.27,0-.52.07-.79.08,4.99-10.97,7.78-23.06,7.78-35.77,0-49.86-42.5-90.27-94.93-90.27-18.53,0-35.76,5.13-50.38,13.86C323.03,32.19,275.81,0,220.65,0,147.7,0,88.56,56.23,88.56,125.6c0,5.24.44,10.38,1.1,15.45-.37,0-.73-.05-1.1-.05C39.65,141,0,178.71,0,225.22s39.65,84.21,88.56,84.21h392.55c34.69,0,62.81-26.74,62.81-59.72s-28.12-59.72-62.81-59.72Z"/>
  <polygon class="cls-1" points="242.34 345.52 208.34 443.99 255.22 443.99 224.82 543.92 335.58 402.84 278.4 402.84 300.04 345.52 242.34 345.52"/>
</svg>