<?xml version="1.0" encoding="UTF-8"?>
<svg id="Calque_1" data-name="Calque 1" xmlns="http://www.w3.org/2000/svg" viewBox="0 0 543.11 543.92">
  <defs>
    <style>
      .cls-1 {
        fill: #bbd6f1;
      }

      .cls-1, .cls-2 {
        stroke-width: 0px;
      }

      .cls-2 {
        fill: #fff;
      }
    </style>
  </defs>
  <path class="cls-2" d="M480.39,215c-.27,0-.52.08-.79.09,4.98-12.42,7.77-26.1,7.77-40.48,0-56.42-42.44-102.16-94.79-102.16-18.5,0-35.71,5.8-50.3,15.68C322.55,36.43,275.4,0,220.32,0,147.48,0,88.43,63.64,88.43,142.14c0,5.93.44,11.75,1.1,17.49-.37,0-.73-.06-1.1-.06C39.59,159.57,0,202.24,0,254.88s39.59,95.3,88.43,95.3h391.97c34.64,0,62.71-30.26,62.71-67.59s-28.08-67.59-62.71-67.59Z"/>
  <path class="cls-1" d="M173.79,516.71c-10.65,23.89-37.26,33.94-59.42,22.46-22.16-11.48-31.49-40.15-20.84-64.04,10.65-23.89,79.54-67.59,79.54-67.59,0,0,11.36,85.28.71,109.17Z"/>
  <path class="cls-1" d="M284.5,516.71c-10.65,23.89-37.25,33.94-59.42,22.46-22.16-11.48-31.49-40.15-20.84-64.04,10.65-23.89,79.54-67.59,79.54-67.59,0,0,11.36,85.28.71,109.17Z"/>
  <path class="cls-1" d="M396.78,516.71c-10.65,23.89-37.25,33.94-59.42,22.46-22.16-11.48-31.49-40.15-20.84-64.04,10.65-23.89,79.54-67.59,79.54-67.59,0,0,11.36,85.28.71,109.17Z"/>
</svg>