<?xml version="1.0" encoding="UTF-8"?>
<svg id="Calque_1" data-name="Calque 1" xmlns="http://www.w3.org/2000/svg" version="1.1" viewBox="0 0 595.28 841.89">
  <defs>
    <style>
      .cls-1 {
        fill: #bbd6f1;
      }

      .cls-1, .cls-2 {
        stroke-width: 0px;
      }

      .cls-2 {
        fill: #fff;
      }
    </style>
  </defs>
  <path class="cls-2" d="M477.68,375.39c-.23,0-.45.07-.68.07,4.29-9.93,6.7-20.87,6.7-32.38,0-45.13-36.59-81.72-81.72-81.72-15.95,0-30.79,4.64-43.36,12.54-17.01-41.35-57.66-70.49-105.15-70.49-62.8,0-113.7,50.91-113.7,113.7,0,4.75.38,9.4.95,13.99-.32,0-.63-.05-.95-.05-42.1,0-76.24,34.13-76.24,76.24s34.13,76.23,76.24,76.23h337.91c29.86,0,54.07-24.21,54.07-54.06s-24.21-54.07-54.07-54.07Z"/>
  <path class="cls-1" d="M213.36,616.72c-9.18,19.11-32.12,27.15-51.22,17.97-19.11-9.18-27.15-32.12-17.97-51.22,9.18-19.11,68.58-54.06,68.58-54.06,0,0,9.8,68.22.61,87.32Z"/>
  <path class="cls-1" d="M308.8,616.72c-9.18,19.11-32.12,27.15-51.22,17.97-19.11-9.18-27.15-32.12-17.97-51.22,9.18-19.11,68.58-54.06,68.58-54.06,0,0,9.8,68.22.61,87.32Z"/>
  <path class="cls-1" d="M405.6,616.72c-9.18,19.11-32.12,27.15-51.22,17.97-19.11-9.18-27.15-32.12-17.97-51.22,9.18-19.11,68.58-54.06,68.58-54.06,0,0,9.8,68.22.61,87.32Z"/>
</svg>