<?xml version="1.0" encoding="UTF-8"?>
<svg id="Calque_1" data-name="Calque 1" xmlns="http://www.w3.org/2000/svg" version="1.1" viewBox="0 0 595.28 841.89">
  <defs>
    <style>
      .cls-1 {
        fill: #bbd6f1;
        stroke-width: 0px;
      }
    </style>
  </defs>
  <path class="cls-1" d="M122,575.66c-12.07,25.1-1.5,55.23,23.6,67.3s55.23,1.5,67.3-23.6c12.07-25.1-.81-114.73-.81-114.73,0,0-78.03,45.93-90.1,71.03Z"/>
  <path class="cls-1" d="M256.55,575.66c-12.07,25.1-1.5,55.23,23.6,67.3,25.1,12.07,55.23,1.5,67.3-23.6,12.07-25.1-.81-114.73-.81-114.73,0,0-78.03,45.93-90.1,71.03Z"/>
  <path class="cls-1" d="M313.96,456.87c12.07-25.1-.81-114.73-.81-114.73,0,0-78.03,45.93-90.1,71.03-12.07,25.1-1.5,55.23,23.6,67.3,25.1,12.07,55.23,1.5,67.3-23.6Z"/>
  <path class="cls-1" d="M393.11,480.48c25.1,12.07,55.23,1.5,67.3-23.6,12.07-25.1-.81-114.73-.81-114.73,0,0-78.03,45.93-90.1,71.03-12.07,25.1-1.5,55.23,23.6,67.3Z"/>
  <path class="cls-1" d="M437.82,307.36c12.07-25.1-.81-114.73-.81-114.73,0,0-78.03,45.93-90.1,71.03-12.07,25.1-1.5,55.23,23.6,67.3,25.1,12.07,55.23,1.5,67.3-23.6Z"/>
  <path class="cls-1" d="M471.99,504.63s-78.03,45.93-90.1,71.03c-12.07,25.1-1.5,55.23,23.6,67.3,25.1,12.07,55.23,1.5,67.3-23.6,12.07-25.1-.81-114.73-.81-114.73Z"/>
</svg>