<?xml version="1.0" encoding="UTF-8"?>
<svg id="Calque_1" data-name="Calque 1" xmlns="http://www.w3.org/2000/svg" width="116.19mm" height="146.57mm" viewBox="0 0 329.37 415.49">
  <defs>
    <style>
      .cls-1 {
        fill: #bbd6f1;
        stroke-width: 0px;
      }
    </style>
  </defs>
  <path class="cls-1" d="M4.55,349.52c-11.01,22.91-1.37,50.4,21.54,61.41,22.91,11.01,50.4,1.37,61.41-21.54,11.01-22.91-.74-104.69-.74-104.69,0,0-71.2,41.91-82.22,64.82Z"/>
  <path class="cls-1" d="M127.33,349.52c-11.01,22.91-1.37,50.4,21.54,61.41,22.91,11.01,50.4,1.37,61.41-21.54,11.01-22.91-.74-104.69-.74-104.69,0,0-71.21,41.91-82.22,64.82Z"/>
  <path class="cls-1" d="M179.72,241.13c11.01-22.91-.74-104.69-.74-104.69,0,0-71.2,41.91-82.22,64.82-11.01,22.91-1.37,50.4,21.54,61.41,22.91,11.01,50.4,1.37,61.41-21.54Z"/>
  <path class="cls-1" d="M251.95,262.67c22.91,11.01,50.4,1.37,61.41-21.54,11.01-22.91-.74-104.69-.74-104.69,0,0-71.2,41.91-82.22,64.82-11.01,22.91-1.37,50.4,21.54,61.41Z"/>
  <path class="cls-1" d="M292.74,104.69c11.01-22.91-.74-104.69-.74-104.69,0,0-71.21,41.91-82.22,64.82-11.01,22.91-1.37,50.4,21.54,61.41,22.91,11.01,50.4,1.37,61.41-21.54Z"/>
  <path class="cls-1" d="M323.92,284.7s-71.21,41.91-82.22,64.82c-11.01,22.91-1.37,50.4,21.54,61.41,22.91,11.01,50.4,1.37,61.41-21.54,11.01-22.91-.74-104.69-.74-104.69Z"/>
</svg>