<?xml version="1.0" encoding="UTF-8"?>
<svg id="Calque_1" data-name="Calque 1" xmlns="http://www.w3.org/2000/svg" viewBox="0 0 414.19 414.19">
  <defs>
    <style>
      .cls-1 {
        fill: #f8ca4d;
        stroke-width: 0px;
      }
    </style>
  </defs>
  <circle class="cls-1" cx="207.09" cy="207.09" r="83.76" transform="translate(-85.78 207.09) rotate(-45)"/>
  <g>
    <path class="cls-1" d="M207.09,91.52h0c-5.55,0-10.04-4.5-10.04-10.04V10.04c0-5.55,4.5-10.04,10.04-10.04h0c5.55,0,10.04,4.5,10.04,10.04v71.43c0,5.55-4.5,10.04-10.04,10.04Z"/>
    <path class="cls-1" d="M207.09,414.19h0c-5.55,0-10.04-4.5-10.04-10.04v-71.43c0-5.55,4.5-10.04,10.04-10.04h0c5.55,0,10.04,4.5,10.04,10.04v71.43c0,5.55-4.5,10.04-10.04,10.04Z"/>
  </g>
  <g>
    <path class="cls-1" d="M288.82,125.37h0c-3.92-3.92-3.92-10.28,0-14.2l50.51-50.51c3.92-3.92,10.28-3.92,14.2,0h0c3.92,3.92,3.92,10.28,0,14.2l-50.51,50.51c-3.92,3.92-10.28,3.92-14.2,0Z"/>
    <path class="cls-1" d="M60.66,353.53h0c-3.92-3.92-3.92-10.28,0-14.2l50.51-50.51c3.92-3.92,10.28-3.92,14.2,0h0c3.92,3.92,3.92,10.28,0,14.2l-50.51,50.51c-3.92,3.92-10.28,3.92-14.2,0Z"/>
  </g>
  <g>
    <path class="cls-1" d="M322.67,207.09h0c0-5.55,4.5-10.04,10.04-10.04h71.43c5.55,0,10.04,4.5,10.04,10.04h0c0,5.55-4.5,10.04-10.04,10.04h-71.43c-5.55,0-10.04-4.5-10.04-10.04Z"/>
    <path class="cls-1" d="M0,207.09h0c0-5.55,4.5-10.04,10.04-10.04h71.43c5.55,0,10.04,4.5,10.04,10.04h0c0,5.55-4.5,10.04-10.04,10.04H10.04c-5.55,0-10.04-4.5-10.04-10.04Z"/>
  </g>
  <g>
    <path class="cls-1" d="M288.82,288.82h0c3.92-3.92,10.28-3.92,14.2,0l50.51,50.51c3.92,3.92,3.92,10.28,0,14.2h0c-3.92,3.92-10.28,3.92-14.2,0l-50.51-50.51c-3.92-3.92-3.92-10.28,0-14.2Z"/>
    <path class="cls-1" d="M60.66,60.66h0c3.92-3.92,10.28-3.92,14.2,0l50.51,50.51c3.92,3.92,3.92,10.28,0,14.2h0c-3.92,3.92-10.28,3.92-14.2,0l-50.51-50.51c-3.92-3.92-3.92-10.28,0-14.2Z"/>
  </g>
</svg>