<?xml version="1.0" encoding="UTF-8"?>
<svg id="Calque_1" data-name="Calque 1" xmlns="http://www.w3.org/2000/svg" version="1.1" viewBox="0 0 595.28 841.89">
  <defs>
    <style>
      .cls-1 {
        fill: #f8ca4d;
        stroke-width: 0px;
      }
    </style>
  </defs>
  <circle class="cls-1" cx="301.29" cy="401.31" r="83.94" transform="translate(-195.52 330.59) rotate(-45)"/>
  <g>
    <path class="cls-1" d="M301.29,285.48h0c-5.56,0-10.06-4.51-10.06-10.06v-71.59c0-5.56,4.51-10.06,10.06-10.06h0c5.56,0,10.06,4.51,10.06,10.06v71.59c0,5.56-4.51,10.06-10.06,10.06Z"/>
    <path class="cls-1" d="M301.29,608.85h0c-5.56,0-10.06-4.51-10.06-10.06v-71.59c0-5.56,4.51-10.06,10.06-10.06h0c5.56,0,10.06,4.51,10.06,10.06v71.59c0,5.56-4.51,10.06-10.06,10.06Z"/>
  </g>
  <g>
    <path class="cls-1" d="M383.2,319.4h0c-3.93-3.93-3.93-10.3,0-14.23l50.62-50.62c3.93-3.93,10.3-3.93,14.23,0h0c3.93,3.93,3.93,10.3,0,14.23l-50.62,50.62c-3.93,3.93-10.3,3.93-14.23,0Z"/>
    <path class="cls-1" d="M154.54,548.06h0c-3.93-3.93-3.93-10.3,0-14.23l50.62-50.62c3.93-3.93,10.3-3.93,14.23,0h0c3.93,3.93,3.93,10.3,0,14.23l-50.62,50.62c-3.93,3.93-10.3,3.93-14.23,0Z"/>
  </g>
  <g>
    <path class="cls-1" d="M417.12,401.31h0c0-5.56,4.5-10.06,10.06-10.06h71.59c5.56,0,10.06,4.5,10.06,10.06h0c0,5.56-4.51,10.06-10.06,10.06h-71.59c-5.56,0-10.06-4.5-10.06-10.06Z"/>
    <path class="cls-1" d="M93.75,401.31h0c0-5.56,4.51-10.06,10.06-10.06h71.59c5.56,0,10.06,4.5,10.06,10.06h0c0,5.56-4.51,10.06-10.06,10.06h-71.59c-5.56,0-10.06-4.5-10.06-10.06Z"/>
  </g>
  <g>
    <path class="cls-1" d="M383.2,483.21h0c3.93-3.93,10.3-3.93,14.23,0l50.62,50.62c3.93,3.93,3.93,10.3,0,14.23h0c-3.93,3.93-10.3,3.93-14.23,0l-50.62-50.62c-3.93-3.93-3.93-10.3,0-14.23Z"/>
    <path class="cls-1" d="M154.54,254.55h0c3.93-3.93,10.3-3.93,14.23,0l50.62,50.62c3.93,3.93,3.93,10.3,0,14.23h0c-3.93,3.93-10.3,3.93-14.23,0l-50.62-50.62c-3.93-3.93-3.93-10.3,0-14.23Z"/>
  </g>
</svg>