<?xml version="1.0" encoding="UTF-8"?>
<svg id="Calque_1" data-name="Calque 1" xmlns="http://www.w3.org/2000/svg" version="1.1" viewBox="0 0 595.28 841.89">
  <defs>
    <style>
      .cls-1 {
        fill: #ffdc7c;
      }

      .cls-1, .cls-2 {
        stroke-width: 0px;
      }

      .cls-2 {
        fill: #bbd6f1;
      }
    </style>
  </defs>
  <path class="cls-2" d="M473.86,331.99c-.23,0-.44.06-.67.07,4.21-9.73,6.56-20.45,6.56-31.73,0-44.22-35.85-80.06-80.06-80.06-15.63,0-30.16,4.55-42.49,12.29-16.67-40.52-56.49-69.06-103.02-69.06-61.52,0-111.4,49.87-111.4,111.4,0,4.65.38,9.21.93,13.71-.31,0-.61-.05-.93-.05-41.25,0-74.69,33.44-74.69,74.69s33.44,74.69,74.69,74.69h331.07c29.26,0,52.97-23.72,52.97-52.97s-23.72-52.97-52.97-52.97Z"/>
  <path class="cls-2" d="M167.43,568.44c-9,18.72-31.47,26.6-50.19,17.6-18.72-9-26.6-31.47-17.6-50.19,9-18.72,67.19-52.97,67.19-52.97,0,0,9.6,66.84.6,85.56Z"/>
  <path class="cls-2" d="M495.15,568.44c-9,18.72-31.47,26.6-50.19,17.6-18.72-9-26.6-31.47-17.6-50.19,9-18.72,67.19-52.97,67.19-52.97,0,0,9.6,66.84.6,85.56Z"/>
  <polygon class="cls-1" points="267.77 469.94 233.7 573.71 280.68 573.71 250.22 679.03 361.22 530.34 303.91 530.34 325.6 469.94 267.77 469.94"/>
</svg>