<?xml version="1.0" encoding="UTF-8"?>
<svg id="Calque_1" data-name="Calque 1" xmlns="http://www.w3.org/2000/svg" viewBox="0 0 543.92 543.92">
  <defs>
    <style>
      .cls-1 {
        fill: #ffdc7c;
      }

      .cls-1, .cls-2 {
        stroke-width: 0px;
      }

      .cls-2 {
        fill: #bbd6f1;
      }
    </style>
  </defs>
  <path class="cls-2" d="M481.11,177.78c-.27,0-.52.07-.79.07,4.99-10.27,7.78-21.58,7.78-33.48,0-46.65-42.5-84.47-94.93-84.47-18.53,0-35.76,4.8-50.38,12.97C323.03,30.12,275.81,0,220.65,0,147.7,0,88.56,52.62,88.56,117.53c0,4.91.44,9.71,1.1,14.46-.37,0-.73-.05-1.1-.05C39.65,131.94,0,167.22,0,210.75s39.65,78.8,88.56,78.8h392.55c34.69,0,62.81-25.02,62.81-55.89s-28.12-55.89-62.81-55.89Z"/>
  <path class="cls-2" d="M117.78,427.24c-10.67,19.75-37.31,28.06-59.51,18.57-22.2-9.49-31.54-33.2-20.87-52.95,10.67-19.75,79.66-55.89,79.66-55.89,0,0,11.38,70.51.71,90.26Z"/>
  <path class="cls-2" d="M506.36,427.24c-10.67,19.75-37.31,28.06-59.51,18.57-22.2-9.49-31.54-33.2-20.87-52.95,10.67-19.75,79.66-55.89,79.66-55.89,0,0,11.38,70.51.71,90.26Z"/>
  <polygon class="cls-1" points="236.76 323.32 196.36 432.8 252.07 432.8 215.95 543.92 347.56 387.05 279.61 387.05 305.32 323.32 236.76 323.32"/>
</svg>