<?xml version="1.0" encoding="UTF-8"?>
<svg id="Calque_1" data-name="Calque 1" xmlns="http://www.w3.org/2000/svg" version="1.1" viewBox="0 0 595.28 841.89">
  <defs>
    <style>
      .cls-1 {
        fill: #bbd6f1;
      }

      .cls-1, .cls-2 {
        stroke-width: 0px;
      }

      .cls-2 {
        fill: #fff;
      }
    </style>
  </defs>
  <path class="cls-1" d="M524.83,409.79c-.18,0-.34.05-.51.05,3.25-7.51,5.07-15.78,5.07-24.48,0-34.12-27.66-61.78-61.78-61.78-12.06,0-23.28,3.51-32.79,9.48-12.86-31.27-43.59-53.3-79.5-53.3-47.48,0-85.96,38.49-85.96,85.96,0,3.59.29,7.1.72,10.58-.24,0-.47-.04-.72-.04-31.83,0-57.64,25.81-57.64,57.64s25.81,57.64,57.64,57.64h255.48c22.58,0,40.88-18.3,40.88-40.88s-18.3-40.88-40.88-40.88Z"/>
  <path class="cls-2" d="M422.4,463.56c-.21,0-.41.06-.62.06,3.91-9.06,6.11-19.03,6.11-29.52,0-41.14-33.35-74.49-74.49-74.49-14.54,0-28.06,4.23-39.53,11.43-15.51-37.7-52.56-64.26-95.85-64.26-57.24,0-103.65,46.4-103.65,103.65,0,4.33.35,8.56.86,12.75-.29,0-.57-.04-.86-.04-38.38,0-69.49,31.11-69.49,69.49s31.11,69.49,69.49,69.49h308.03c27.22,0,49.28-22.07,49.28-49.28s-22.07-49.28-49.28-49.28Z"/>
</svg>