<?xml version="1.0" encoding="UTF-8"?>
<svg id="Calque_1" data-name="Calque 1" xmlns="http://www.w3.org/2000/svg" viewBox="0 0 543.92 294.88">
  <defs>
    <style>
      .cls-1 {
        fill: #bbd6f1;
      }

      .cls-1, .cls-2 {
        stroke-width: 0px;
      }

      .cls-2 {
        fill: #fff;
      }
    </style>
  </defs>
  <path class="cls-1" d="M501.23,135.79c-.18,0-.35.05-.54.05,3.39-7.84,5.29-16.48,5.29-25.57,0-35.64-28.89-64.52-64.52-64.52-12.59,0-24.31,3.66-34.24,9.9C393.79,23.01,361.7,0,324.2,0c-49.58,0-89.77,40.19-89.77,89.77,0,3.75.3,7.42.75,11.05-.25,0-.5-.04-.75-.04-33.24,0-60.19,26.95-60.19,60.19s26.95,60.19,60.19,60.19h266.81c23.58,0,42.69-19.11,42.69-42.69s-19.11-42.69-42.69-42.69Z"/>
  <path class="cls-2" d="M394.26,191.94c-.22,0-.43.06-.65.06,4.09-9.46,6.38-19.87,6.38-30.83,0-42.97-34.83-77.8-77.79-77.8-15.18,0-29.31,4.42-41.28,11.94-16.2-39.37-54.89-67.11-100.1-67.11-59.78,0-108.24,48.46-108.24,108.24,0,4.52.36,8.94.9,13.32-.3,0-.6-.05-.9-.05C32.49,149.73,0,182.22,0,222.31s32.49,72.57,72.57,72.57h321.69c28.43,0,51.47-23.04,51.47-51.47s-23.04-51.47-51.47-51.47Z"/>
</svg>