<?xml version="1.0" encoding="UTF-8"?>
<svg id="Calque_1" data-name="Calque 1" xmlns="http://www.w3.org/2000/svg" version="1.1" viewBox="0 0 595.28 841.89">
  <defs>
    <style>
      .cls-1 {
        fill: #fff;
        stroke-width: 0px;
      }
    </style>
  </defs>
  <path class="cls-1" d="M451.4,453.28c-.23,0-.45.07-.68.07,4.31-9.96,6.72-20.94,6.72-32.48,0-45.27-36.7-81.97-81.97-81.97-16,0-30.88,4.66-43.5,12.58-17.07-41.48-57.84-70.71-105.47-70.71-62.99,0-114.05,51.06-114.05,114.05,0,4.76.38,9.42.95,14.03-.32,0-.63-.05-.95-.05-42.23,0-76.47,34.24-76.47,76.47s34.24,76.47,76.47,76.47h338.96c29.95,0,54.23-24.28,54.23-54.23s-24.28-54.23-54.23-54.23Z"/>
  <path class="cls-1" d="M409.24,299.58h-173.34c-5.19,0-9.4-4.21-9.4-9.4h0c0-5.19,4.21-9.4,9.4-9.4h173.34c5.19,0,9.4,4.21,9.4,9.4h0c0,5.19-4.21,9.4-9.4,9.4Z"/>
  <path class="cls-1" d="M549.54,299.58h-100.58c-5.19,0-9.4-4.21-9.4-9.4h0c0-5.19,4.21-9.4,9.4-9.4h100.58c5.19,0,9.4,4.21,9.4,9.4h0c0,5.19-4.21,9.4-9.4,9.4Z"/>
  <path class="cls-1" d="M480.42,357.72h-103.7c-5.19,0-9.4-4.21-9.4-9.4h0c0-5.19,4.21-9.4,9.4-9.4h103.7c5.19,0,9.4,4.21,9.4,9.4h0c0,5.19-4.21,9.4-9.4,9.4Z"/>
  <path class="cls-1" d="M549.02,357.72h-27.51c-5.19,0-9.4-4.21-9.4-9.4h0c0-5.19,4.21-9.4,9.4-9.4h27.51c5.19,0,9.4,4.21,9.4,9.4h0c0,5.19-4.21,9.4-9.4,9.4Z"/>
  <path class="cls-1" d="M549.02,471.44h-172.3c-5.19,0-9.4-4.21-9.4-9.4h0c0-5.19,4.21-9.4,9.4-9.4h172.3c5.19,0,9.4,4.21,9.4,9.4h0c0,5.19-4.21,9.4-9.4,9.4Z"/>
  <path class="cls-1" d="M549.02,561.75h-172.3c-5.19,0-9.4-4.21-9.4-9.4h0c0-5.19,4.21-9.4,9.4-9.4h172.3c5.19,0,9.4,4.21,9.4,9.4h0c0,5.19-4.21,9.4-9.4,9.4Z"/>
</svg>